<?xml version="1.0" encoding="UTF-8"?>
<!DOCTYPE svg PUBLIC "-//W3C//DTD SVG 1.1//EN" "http://www.w3.org/Graphics/SVG/1.1/DTD/svg11.dtd">
<!-- Creator: CorelDRAW 2018 (64 Bit Versão de avaliação) -->
<svg xmlns="http://www.w3.org/2000/svg" xml:space="preserve" width="210mm" height="297mm" version="1.1" style="shape-rendering:geometricPrecision; text-rendering:geometricPrecision; image-rendering:optimizeQuality; fill-rule:evenodd; clip-rule:evenodd"
viewBox="0 0 21000 29700"
 xmlns:xlink="http://www.w3.org/1999/xlink">
 <defs>
  <style type="text/css">
   <![CDATA[
    .fil0 {fill:white}
   ]]>
  </style>
 </defs>
 <g id="Camada_x0020_1">
  <metadata id="CorelCorpID_0Corel-Layer"/>
  <g id="_1327295114704">
   <g>
    <path class="fil0" d="M10493.69 14748.4l-6.57 14.92c-3.39,0.21 -6.77,0.64 -10.12,1.28l-10.04 -12.91 -10.83 3.66 -0.05 16.43c-4.59,2.34 -8.98,5.18 -13.13,8.49l-15.3 -6.86 -7.83 8.3 7.83 14.79c-2.52,3.58 -4.71,7.33 -6.56,11.2l-16.8 0.46 -3.41 10.85 13.56 9.95c-0.65,4.03 -0.97,8.1 -0.98,12.17l-15.06 7.6 1.58 11.27 16.52 3.22c0.99,3.43 2.21,6.8 3.67,10.09l-10.89 13.46 6.08 9.64 16.93 -3.95c1.06,1.25 2.17,2.47 3.33,3.67 2.43,2.5 4.99,4.81 7.64,6.92l-3.29 16.88 9.9 5.69 12.92 -11.2c3.72,1.48 7.52,2.67 11.39,3.57l4.22 16.49 11.39 0.93 6.85 -15.56c4.73,-0.28 9.45,-0.99 14.09,-2.12l10.88 12.55 10.6 -4.23 -0.31 -6.36 -24.76 -18.69c-7.21,1.81 -14.68,2.3 -22.02,1.47 -13.7,-1.53 -26.86,-7.69 -37.2,-18.33 -23.61,-24.31 -22.93,-62.98 1.49,-86.49 11.83,-11.38 27.04,-17.16 42.27,-17.32 16.22,-0.18 32.44,6.01 44.62,18.54 19.81,20.41 22.51,51.1 8.44,74.34l13.79 10.41c1.72,-2.7 3.27,-5.48 4.63,-8.32l16.68 -0.46 3.41 -10.85 -13.47 -9.88c0.66,-4.06 0.98,-8.18 0.99,-12.28l14.96 -7.57 -1.58 -11.27 -16.51 -3.22c-1.38,-4.72 -3.21,-9.35 -5.5,-13.8l9.84 -13.57 -6.58 -9.3 -16.2 4.69c-0.2,-0.22 -0.4,-0.44 -0.61,-0.65 -2.58,-2.66 -5.32,-5.1 -8.17,-7.33l3.11 -15.94 -9.9 -5.69 -12.29 10.66c-3.98,-1.6 -8.07,-2.84 -12.22,-3.76l-4.03 -15.75 -11.4 -0.93zm-25.09 65.92c-4.46,0.05 -8.88,1.14 -12.94,3.12l19.51 14.74c5.9,4.46 7.57,12.92 3.04,18.87 -4.53,5.95 -13.22,6.84 -19.2,2.32l-19.5 -14.72c-1.99,10.65 1.79,21.93 11.04,28.92 8.3,6.27 18.96,7.44 28.14,4.16l2.06 -0.74 1.74 1.32 58.31 44.04 1.74 1.32 -0.15 2.17c-0.71,9.68 3.27,19.59 11.58,25.86 9.26,6.99 21.2,7.57 30.96,2.79l-19.49 -14.72c-5.98,-4.52 -7.45,-13.1 -2.92,-19.04 4.53,-5.95 13.17,-6.62 19.07,-2.16l19.49 14.72c1.99,-10.65 -1.77,-21.93 -11.02,-28.92 -8.34,-6.3 -18.91,-7.54 -28.03,-4.31l-2.05 0.72 -1.74 -1.31 -58.31 -44.04 -1.74 -1.32 0.15 -2.16c0.67,-9.61 -3.39,-19.41 -11.71,-25.7 -5.42,-4.09 -11.75,-6 -18.03,-5.93l0 0zm18.79 38.76l70.69 53.39 -4.86 6.4 -70.71 -53.41 4.88 -6.38 0 0z"/>
   </g>
  </g>
 </g>
</svg>
